<svg width="104" height="49" viewBox="0 0 104 49" fill="none" xmlns="http://www.w3.org/2000/svg">
<path d="M86.5957 2.96836C80.9214 2.96836 76.9984 5.26098 74.344 8.45842C73.8943 7.50146 73.5507 7.0807 73.0717 6.5296C70.9 4.02735 67.4011 2.85815 62.714 2.85815C58.1292 2.85815 54.3122 4.31668 51.6616 6.61152C50.2832 4.33269 47 2.81979 43.0405 2.81979C37.8671 2.81979 32.2367 3.56823 28.8895 9.05457C28.812 7.07735 28.6336 6.03474 27.543 4.8566C26.2184 3.43046 24.0741 3.05438 21.985 3.05438C18.1771 3.05438 15.3137 4.7475 13.2527 8.19815C10.2635 13.0612 3.01342 29.0689 3.17904 36.8199C3.28142 41.8281 6.58178 45.4363 12.4849 45.5778C17.0989 45.6895 20.7156 44.4309 23.0174 42.0702C25.0817 44.349 28.2332 45.6932 32.0027 45.6932C36.1999 45.6932 40.4264 44.4086 42.9235 41.6047C45.0257 44.2298 48.3309 45.7602 52.5829 45.7416C58.1475 45.7044 63.0284 43.0308 66.2202 38.9125C67.9678 43.7644 72.4063 45.6932 77.258 45.6932C87.8826 45.6932 92.5478 38.2535 96.4379 26.4884C97.3117 23.8335 98.4817 19.4136 98.6754 15.6975C98.9972 9.51257 96.4269 2.96836 86.5957 2.96836ZM100.971 19.8898C100.478 23.9039 97.8126 31.3458 96.3977 34.3173C92.5953 42.2932 87.517 48.4222 77.7406 48.4222C72.516 48.4222 68.2164 46.7205 65.701 43.4624C62.023 46.7466 57.4675 48.4669 52.561 48.4669C48.7806 48.4669 45.4425 47.3535 42.8979 45.2981C40.0827 47.3163 36.295 48.4408 32.0868 48.4408C28.5784 48.4408 25.4202 47.4615 22.9465 45.6481C20.2125 47.4913 16.6288 48.4111 12.4206 48.3105C5.41914 48.143 0.585769 43.6188 0.446837 37.0541C0.262204 28.3349 7.4757 12.3682 10.8766 6.83866C13.4183 2.5826 17.3033 0.295572 22.0588 0.295572C27.2227 0.295572 29.0961 1.79879 30.0138 3.70936C33.9989 0.260199 39.282 0.0639648 43.0405 0.0639648C47.1938 0.0639648 49.797 1.18477 52.0126 2.98326C55.0764 1.11402 58.5826 0.144394 62.7652 0.144394C68.1104 0.144394 72.0773 1.40967 74.8486 4.19752C78.0769 1.45845 82.1242 0.211791 86.6505 0.211791C92.6392 0.211791 96.5768 2.41243 98.8911 5.68807C102.149 10.3128 101.571 14.971 100.971 19.8898ZM43.0441 3.59467C37.8817 3.59467 32.6791 4.30439 29.5348 9.46082L28.238 11.5907L28.1338 9.08846C28.057 7.14847 27.8797 6.34417 26.9953 5.38721C26.0191 4.33716 24.3826 3.82702 21.9864 3.82702C18.4667 3.82702 15.8222 5.38721 13.8969 8.60439C10.9325 13.4227 3.77609 29.2688 3.93549 36.8016C4.03786 41.687 7.24134 44.6808 12.5047 44.8074C16.8423 44.9079 20.2907 43.7759 22.4785 41.5269L23.0386 40.9497L23.575 41.5455C25.5438 43.7238 28.5363 44.9191 32.0023 44.9191C36.4152 44.9191 40.192 43.519 42.3601 41.0838L42.9524 40.4172L43.5117 41.1173C45.5372 43.6568 48.6778 45.0084 52.5825 44.9712C57.6718 44.934 62.4248 42.562 65.6239 38.4326L66.4611 37.3527L66.9328 38.6485C68.8961 44.1036 74.245 44.9191 77.2576 44.9191C87.4874 44.9191 91.904 37.7735 95.7173 26.2393C96.6642 23.3796 97.7355 19.0937 97.9183 15.6531C98.0535 13.0615 97.7099 9.4273 95.3005 6.84313C93.3847 4.78287 90.4561 3.73915 86.5989 3.73915C81.7217 3.73915 77.7914 5.49594 74.9213 8.96185L74.1609 9.87413L73.6563 8.79429C73.2468 7.91925 72.9507 7.55806 72.5047 7.04421C70.5413 4.77654 67.2435 3.62967 62.7136 3.62967C58.5639 3.62967 54.8091 4.8983 52.1511 7.2006L51.4821 7.78148L51.0177 7.01814C49.76 4.93777 46.6304 3.59504 43.0438 3.59504L43.0441 3.59467ZM43.2196 6.11182C45.98 6.11182 49.1608 7.3123 49.1608 9.96722C49.1608 13.6461 46.1006 15.0499 43.0661 15.2287C41.7681 15.3031 39.7756 15.3776 38.5837 15.292C38.5837 15.292 37.5709 16.8633 36.496 19.6523C42.1191 18.848 44.5029 20.1475 43.5523 23.4578C42.269 27.9298 38.463 28.224 33.8051 27.375C33.4395 28.3804 32.7522 30.4753 32.1965 32.702C33.9989 32.244 35.3517 31.92 37.6696 31.9796C40.3094 32.0466 41.9985 33.1637 41.9985 35.3867C41.9985 40.7784 36.1487 42.361 32.0904 42.361C27.63 42.361 23.7165 39.7768 23.7165 34.8132C23.7165 28.991 26.8132 20.1699 29.7176 14.294C33.2896 7.07399 36.9384 6.11219 43.2196 6.11219V6.11182ZM62.8712 6.26225C68.1725 6.26225 72.3515 8.20224 71.7372 13.2626C71.2912 16.975 69.4668 19.1533 66.1544 19.4177C65.2257 19.4922 61.4343 19.3805 62.692 15.7388C63.1308 14.4616 63.3136 13.46 61.449 13.46C59.9244 13.46 58.9336 14.4393 58.1914 15.5005C56.5644 17.8277 53.0326 27.1665 52.4842 30.9966C52.1113 33.6254 53.2227 34.1579 54.4402 34.1579C56.3926 34.1579 58.5826 32.0541 59.3284 28.5852C59.3284 28.5852 55.6102 28.4921 56.6375 25.1334C57.6283 21.8753 59.5222 21.1715 62.6518 21.0412C68.8233 20.7843 68.2128 25.4238 67.7192 27.8963C66.1178 35.9303 60.502 42.387 52.5573 42.387C47.1207 42.387 43.7461 39.3188 43.7461 33.6738C43.7461 29.6524 45.7058 23.3349 47.2596 19.6411C50.5647 11.7732 54.0344 6.26225 62.8712 6.26225ZM87.0015 6.31066C97.5091 6.43726 95.6335 15.9585 94.8146 20.0991C93.8823 24.8355 91.78 30.438 89.4986 34.6159C85.7767 41.4301 81.2577 42.3833 77.3128 42.3349C73.3715 42.2865 68.9184 40.8045 68.8891 34.6047C68.8526 30.155 70.7464 23.8711 72.3515 19.7565C75.1374 12.287 77.9892 6.20267 87.0015 6.31066ZM22.0471 6.46333C24.6846 6.46333 25.3405 7.84105 25.301 9.49433C25.1987 13.9031 18.198 27.308 15.9023 32.5456C21.4003 31.5737 22.7831 33.5994 22.6076 35.4686C22.0921 41.0838 17.0357 42.3349 12.6458 42.2344C9.46243 42.1562 6.60043 40.6705 6.52036 36.9096C6.38143 30.3226 12.9763 15.0909 16.0822 10.0454C17.5139 7.6437 19.2604 6.46333 22.0467 6.46333H22.0471ZM85.9046 13.6163C85.0016 13.6163 84.2119 13.7802 83.5062 14.8898C81.9158 16.9936 77.2689 29.9205 77.353 32.5009C77.3896 33.4243 77.8832 34.2361 79.0056 34.2361C80.2889 34.2361 81.0018 33.335 81.638 32.2402C83.0968 29.7194 87.2099 18.2932 87.3232 15.4335C87.3598 14.6031 87.2208 13.6163 85.9046 13.6163ZM100.441 2.59303V1.8349H100.946C101.319 1.8349 101.513 1.96672 101.513 2.21099C101.513 2.40648 101.392 2.59265 101.012 2.59265H100.441V2.59303ZM102.262 4.17555L101.944 3.61701C101.67 3.1255 101.593 3.05215 101.363 2.96539V2.95421C101.823 2.89948 102.098 2.59452 102.098 2.17673C102.098 1.73735 101.823 1.40297 101.238 1.40297H99.882V4.17779H100.441V3.04097H100.544C100.781 3.04097 100.88 3.06704 100.99 3.17875C101.099 3.29157 101.264 3.52579 101.363 3.725L101.582 4.17779H102.262V4.17555ZM100.92 0.623993C102.09 0.623993 103.044 1.58729 103.044 2.77921C103.044 3.96405 102.09 4.93405 100.92 4.93405C99.754 4.93405 98.8144 3.96405 98.8144 2.77921C98.8144 1.58766 99.754 0.623993 100.92 0.623993ZM100.92 0.0941257C100.574 0.0939768 100.232 0.163372 99.9124 0.29833C99.593 0.433288 99.3028 0.631155 99.0586 0.88058C98.8143 1.13001 98.6209 1.42608 98.4892 1.75183C98.3576 2.07758 98.2904 2.42658 98.2915 2.77883C98.2908 3.13054 98.3583 3.47892 98.4902 3.80397C98.6221 4.12902 98.8157 4.42432 99.06 4.67293C99.3042 4.92153 99.5943 5.11854 99.9136 5.25262C100.233 5.3867 100.575 5.45522 100.92 5.45423C102.383 5.45423 103.556 4.26268 103.556 2.77883C103.556 1.29163 102.379 0.0941257 100.92 0.0941257Z" fill="black"/>
</svg>
