<svg width="108" height="54" viewBox="0 0 108 54" fill="none" xmlns="http://www.w3.org/2000/svg">
<path d="M84.3737 25.2424C85.4608 25.7722 85.4608 25.4915 85.7435 25.0569C86.0255 24.6217 87.637 23.368 87.637 23.368C87.637 23.368 89.1371 22.463 90.6776 20.2882C92.1508 18.2036 90.8654 16.8337 89.6486 15.6499C88.4311 14.4654 85.6297 16.0709 83.508 19.3312C81.385 22.5897 83.2889 24.712 84.3737 25.2424ZM93.9966 29.1234C94.3092 28.9083 94.7069 29.2223 94.4622 29.8529C94.3741 30.0785 92.6561 34.7323 87.6223 38.188C87.6223 38.188 88.1399 33.1497 93.9966 29.1234ZM74.8719 12.0458C75.7718 11.1921 75.5295 12.128 75.4329 12.4124C75.4329 12.4124 71.4005 23.747 62.735 33.9088C62.735 33.9088 67.3131 19.2243 74.8719 12.0458ZM23.202 41.4106C23.202 41.4106 17.6365 33.9496 8.16531 42.7261L11.2983 31.7854C11.2983 31.7854 14.6143 32.0982 19.2437 29.9227C19.2437 29.9227 29.2521 30.2436 23.202 41.4106ZM20.4899 45.3677C20.4899 45.3677 14.3861 51.4618 12.3323 49.1034C10.3861 46.868 13.8929 43.8587 15.2652 43.1162C17.0437 42.1562 22.4263 41.1528 20.4899 45.3677ZM14.977 7.86371C14.977 7.86371 25.265 2.87922 29.6999 5.3965C34.1367 7.91378 32.7852 12.4198 26.0273 19.8975C26.0273 19.8975 20.8601 24.5822 17.7772 25.9026C17.7772 25.9026 13.8893 26.5103 12.774 27.0698C12.774 27.0698 13.6972 23.9856 14.8051 20.4563C16.1805 16.0882 17.9663 11.2595 16.9758 9.98041C15.7718 8.42071 14.977 7.86371 14.977 7.86371ZM107.05 36.7C107.013 36.4187 105.799 32.7936 104.76 33.9558C103.722 35.1187 101.061 39.5239 92.5185 44.2277C88.3148 46.5416 87.9875 43.6343 87.7789 42.4585C87.7789 42.4585 93.5861 38.3438 96.5502 32.8938C98.5643 29.1896 97.266 28.3457 96.4419 27.5068C95.6931 26.7471 93.8216 25.0291 91.3897 26.8274C88.9585 28.6264 83.1287 34.4269 83.7606 40.7863C82.8148 41.7562 80.0568 44.0423 78.2728 43.6343C76.4888 43.2244 78.3707 39.3409 79.7038 36.6889C81.0326 34.0486 83.6377 31.9306 84.4391 30.7313C85.2406 29.532 84.7946 29.1488 84.6343 28.9584C84.474 28.7673 84.1032 28.5034 83.5294 27.4493C82.9555 26.3959 82.129 27.1297 82.129 27.1297C78.2869 29.6798 75.5852 36.4101 75.5852 36.4101C74.8131 37.2836 73.6568 36.9411 73.4347 36.8545C73.0964 36.7198 72.8413 35.8797 72.7734 35.4488C72.7171 35.1026 72.4852 33.6789 72.2986 33.2907C72.1139 32.903 71.9126 32.7095 70.9184 33.0174C69.7591 33.376 68.9277 34.0949 68.5912 34.4893C68.2516 34.8837 68.4095 34.9746 68.4927 36.2265C68.5324 36.8428 68.5875 36.8601 68.1592 37.9395C67.5156 39.5715 66.3973 41.6542 66.043 42.3534C65.739 42.9567 63.5371 45.9154 62.6451 45.9853C61.8498 46.0477 61.5567 44.7594 61.5567 44.7594C61.5567 44.7594 61.1003 41.7815 61.4289 40.3096C76.862 22.7387 80.7261 10.3383 80.7261 10.3383C80.7959 10.1282 81.1562 9.40302 80.055 7.75058C78.6283 5.60916 77.1398 5.70127 77.1398 5.70127C77.1398 5.70127 76.0997 5.56651 73.7933 7.97808C59.1071 23.3353 57.6498 39.4608 57.6498 39.4608C57.5036 39.7619 57.4473 39.8163 56.8129 40.526C56.146 41.2722 55.1739 41.8044 55.1739 41.8044C55.1739 41.8044 54.2415 42.0486 54.0427 41.2511C53.9148 40.7374 54.001 40.343 54.0696 39.6531C54.1332 39.0139 55.0374 36.9028 55.0374 36.9028C55.0374 36.9028 56.3993 33.9212 56.7003 33.0372C57.0013 32.1519 56.931 31.1721 56.652 30.4797C56.373 29.788 55.1194 29.0777 54.7169 28.8007C54.3259 28.5318 53.9075 28.1201 53.9625 27.5322C53.9815 27.3387 53.8022 27.1773 54.5547 25.4965C55.3091 23.8137 53.9191 23.4057 53.5147 23.3359C53.1115 23.2654 51.9944 22.9211 50.9727 23.8255C49.163 25.4297 49.1091 28.24 49.1091 28.24C49.1036 28.6103 49.237 28.9757 49.059 29.3942C48.9568 29.634 48.706 30.0927 48.055 31.4355C47.3931 32.798 46.0006 35.531 45.1398 37.0524C44.4161 38.3326 43.4158 39.8039 42.7691 40.5371C42.3323 41.0323 41.748 41.4323 41.748 41.4323C41.748 41.4323 41.1007 41.9256 41.0842 40.7071C41.0671 39.4361 42.7997 35.557 42.7997 35.557C42.7997 35.557 44.0141 32.5235 44.1713 32.1575C44.3928 31.6382 44.5384 30.9551 44.1964 30.5323C43.6935 29.9159 42.3935 29.5982 41.8196 29.8875C41.2482 30.178 40.2216 31.9331 39.6122 32.934C38.8408 34.2019 37.5903 36.6709 36.1544 39.1159C34.7638 41.4811 33.2135 42.3398 33.2135 42.3398C33.2135 42.3398 32.379 42.8529 31.7323 42.2569C31.3646 41.9182 28.3448 39.2259 35.5407 31.1257C38.5049 27.7893 40.0546 27.2305 41.5957 28.3253C42.1928 28.7494 42.7801 29.4739 43.5449 29.4949C44.8431 29.5314 45.2683 27.9136 45.2683 27.9136C45.3123 27.6336 46.4491 24.5482 41.5951 24.4938C33.7164 24.406 29.208 33.3939 29.208 33.3939C27.7043 27.6608 23.4419 27.2293 23.4419 27.2293C28.3472 23.7445 31.145 21.5184 34.7044 15.3C38.2638 9.08094 33.0807 4.17062 33.0807 4.17062C30.8807 1.48148 25.4944 -1.32451 16.416 1.47777C6.93073 4.40492 6.14518 6.73798 5.19996 9.59342C4.25351 12.4507 6.10908 11.7138 7.24886 11.1562C8.38741 10.5974 12.8566 8.75329 12.8566 8.75329C12.8566 8.75329 1.53591 44.0454 1.20126 45.7609C0.900255 47.3026 -0.591915 51.489 3.93966 52.0559C3.93966 52.0559 4.64077 52.1623 5.2801 51.9267C5.92065 51.6924 5.93656 51.2714 5.93656 51.2714C6.20208 50.2656 6.63217 48.6818 6.74902 48.5242C9.23047 56.0767 17.2603 53.8771 22.2299 49.4502C25.8395 46.2356 27.9747 41.8471 27.9747 41.8471C31.0343 48.5879 34.7258 45.0277 34.7258 45.0277C36.2278 43.8061 38.1556 41.0045 38.1556 41.0045C39.3155 46.5039 43.3613 44.2111 43.3613 44.2111C45.2628 43.0668 47.1728 39.6074 47.5485 38.978C49.7026 35.3795 51.7307 31.0151 51.7307 31.0151C51.7307 31.0151 52.0029 31.0312 52.6147 31.5696C53.1598 32.0481 52.8925 32.832 52.6649 33.5559C52.4379 34.2791 51.5582 36.1263 51.0999 37.7046C50.6307 39.3211 50.5414 40.8815 51.1691 42.2916C51.7833 43.6707 53.5857 44.8441 54.819 44.9844C56.3926 45.1649 57.8572 43.8945 57.8572 43.8945C58.0817 47.9011 61.1774 49.3186 61.1774 49.3186C65.2141 51.4452 68.9821 44.6914 68.9821 44.6914C71.5517 40.4444 71.3387 39.3768 71.5596 38.7264C71.8551 39.1147 72.5893 39.5375 74.131 39.8417C73.7174 41.3352 74.1536 42.7917 74.1536 42.7917C74.1536 42.7917 75.3276 45.7862 77.9804 46.5113C80.824 47.2897 84.5737 44.3879 84.5737 44.3879C84.5737 44.3879 88.8275 51.7821 98.3465 45.359C107.866 38.9366 107.088 36.9825 107.05 36.7Z" fill="#EC4399"/>
</svg>
