<svg width="120" height="51" viewBox="0 0 120 51" fill="none" xmlns="http://www.w3.org/2000/svg">
<path fill-rule="evenodd" clip-rule="evenodd" d="M52.8276 18.8803C53.5893 18.8576 54.6901 20.7189 54.7236 21.8848C54.758 23.0469 55.0337 29.1314 55.11 30.8859C55.1845 32.6338 55.1287 34.3156 55.0169 35.0903C54.9052 35.8651 54.6258 36.2524 53.3127 36.2902C51.9904 36.328 51.385 35.5344 51.2733 34.3553C51.156 33.1837 51.061 29.8486 51.1178 28.181C51.1755 26.5087 51.2519 23.3152 51.4661 21.3169C51.6803 19.3177 52.2111 18.8888 52.8182 18.8727L52.8276 18.8803ZM66.706 18.5685C69.8443 18.474 73.7648 18.885 73.8021 19.9007C73.8189 20.4959 73.5134 21.7374 71.8427 21.9084C69.8685 22.1115 59.9255 22.5414 59.9637 23.7867C59.9823 24.4443 62.9717 24.5916 65.7114 24.7598C68.5266 24.9327 73.0496 25.0395 73.1875 29.6634C73.2918 33.316 71.9321 34.0851 71.3194 34.378C70.5427 34.7464 67.9268 35.7536 65.9247 35.8141C59.8864 35.9964 57.3944 32.4732 57.3432 30.6838C57.2966 29.0965 58.9058 27.6868 61.6176 27.6037C64.3248 27.5234 68.5219 28.5154 68.5554 29.6445C68.5834 30.5609 66.733 31.0333 65.9135 31.057C62.2164 31.1684 62.3999 29.6435 60.2673 29.7087C59.0511 29.7465 57.3525 32.3617 63.4336 32.1794C68.8534 32.0159 70.4924 30.2047 70.4645 29.2297C70.4272 27.941 66.5383 27.3146 64.2866 27.1946C62.0385 27.0765 58.6646 27.0926 57.5117 26.3537C56.357 25.6149 56.5209 23.9426 56.9232 22.5594C57.7576 19.6683 63.5863 18.6611 66.7199 18.5676L66.706 18.5685ZM77.406 19.7637C79.5293 19.7004 83.962 29.4385 84.7163 29.4168C85.4613 29.3941 84.9091 27.1398 84.4342 24.6531C83.366 19.0258 81.7 16.1243 83.2664 16.078C84.4211 16.0421 88.2178 19.7684 88.432 26.983C88.5279 30.3332 88.0651 34.7171 85.074 34.8078C82.2383 34.8929 79.0059 25.8057 78.2712 25.8284C77.8754 25.8397 77.8447 31.4566 77.7404 33.1506C77.6305 34.8456 77.0512 35.7517 76.1218 35.7791C74.7091 35.8235 74.0889 34.4507 74.0126 31.7448C73.9306 29.0398 74.8041 19.8421 77.4163 19.7646L77.406 19.7637ZM19.2672 23.4607C14.8251 23.7952 9.13982 24.6323 9.18638 26.2139C9.23294 27.8673 13.4236 31.039 18.9273 33.1081C19.1833 29.7352 19.2485 26.1449 19.2672 23.4617V23.4607ZM110.407 31.5076C113.083 26.1903 115.848 23.1622 116.817 23.1329C118.503 23.0809 117.078 30.8113 110.407 31.5076ZM104.471 32.8719C102.273 37.2653 100.798 41.9232 100.901 45.4284C101.023 49.3777 103.407 50.8488 104.133 50.827C104.859 50.8053 104.897 49.6366 105.027 48.7674C105.772 43.8355 107.038 39.4705 108.491 35.7999C109.069 35.9473 109.637 36.0172 110.167 35.9983C114.619 35.866 119.772 30.4712 119.601 24.7286C119.515 21.6958 118.372 19.5473 116.459 19.6059C113.656 19.689 109.627 23.9851 106.395 29.378C106.103 27.1899 107.807 23.8226 109.254 21.4662C110.273 19.8128 110.097 17.8448 109.671 17.8571C109.082 17.876 103.341 22.805 103.536 29.5651C103.573 30.8803 103.908 31.9838 104.473 32.8814L104.471 32.8719ZM98.9328 25.0395C99.933 25.0111 100.818 24.8411 100.73 26.1638C100.642 27.4865 100.588 28.0156 99.5418 28.0478L94.1872 28.2084C94.0102 28.813 93.5539 30.372 93.349 31.0296C93.0929 31.8534 93.9078 31.672 94.9582 31.3697C96.0078 31.0636 98.8602 30.5194 100.028 30.4816C101.201 30.4466 102.077 32.34 101.403 32.9929C100.729 33.6448 97.1066 36.7437 93.3267 36.8571C91.7035 36.911 89.4992 35.472 89.4247 32.8937C89.3875 31.5275 89.923 29.6964 90.4398 28.2773C90.3141 28.197 90.2163 28.009 90.1455 27.5999C89.9779 26.6712 89.5682 25.6536 91.0842 25.4779C91.2109 25.4637 91.3599 25.4495 91.5406 25.4344L92.7959 22.8107C92.2865 22.7351 91.846 22.6217 91.5061 22.4517C90.5842 22.0076 89.8624 20.8549 89.8485 20.3429C89.8168 19.211 97.9876 18.5345 99.8808 18.4778C101.911 18.4192 102.488 18.816 103.136 19.7561C103.787 20.6972 104.031 21.3623 104.039 21.6212C104.043 21.8763 103.809 22.514 101.354 22.5887C100.097 22.6265 98.0695 22.8438 96.1204 22.9156L95.2702 25.2067C97.17 25.1122 98.944 25.0385 98.944 25.0385L98.9328 25.0395ZM52.361 13.305C53.0222 12.3602 56.4333 7.72118 59.9563 7.61725C60.99 7.58608 61.2628 8.23327 61.2861 8.94943C61.3233 10.0662 59.3305 13.3277 54.8418 13.4628C53.8612 13.4911 53.0352 13.4184 52.3712 13.3078L52.361 13.305ZM49.5784 11.765C49.4946 11.6298 49.4201 11.4125 49.4108 11.0752C49.3829 10.3288 50.6494 7.4727 53.8435 7.23933C53.0334 7.80622 52.2045 8.52805 51.3944 9.45963C50.6307 10.3288 50.0254 11.097 49.571 11.765H49.5784ZM2.98891 6.4353C1.52871 6.47309 0.42797 5.82401 0.400033 4.917C0.384201 4.25563 1.81367 2.18462 2.68625 1.85016C3.28225 1.61679 6.18589 0.499083 11.0256 0.350749C12.8201 0.298784 15.8681 0.520814 18.4383 0.908184C33.4166 3.16627 49.1324 14.7496 49.4359 25.0234C49.6427 32.015 43.6873 38.5719 32.0644 38.9215C29.0062 39.016 26.1603 38.6353 23.5677 37.9437C23.5118 39.6538 23.6366 40.5608 21.2395 40.6363C19.7728 40.6779 19.1982 38.2668 18.9841 36.3035C11.969 33.1478 7.74201 28.0175 7.68241 25.9956C7.5958 22.977 12.998 20.4628 19.3174 19.467C19.405 16.9727 19.8231 10.6142 21.1241 10.5764C21.6456 10.5603 22.7258 11.7886 23.1318 13.6687C23.5043 15.376 23.5416 18.4873 23.5444 19.0447L24.0231 19.0258C32.8923 18.7612 38.2032 21.573 38.3028 24.9044C38.3773 27.4856 36.1237 28.8064 34.941 28.8442C33.7677 28.8792 32.3801 28.198 32.3708 27.8276C32.3522 27.1143 34.8945 26.9489 34.8609 25.8001C34.8116 24.0663 27.7611 23.3058 23.4187 23.2774C23.4094 24.7721 23.3907 26.5748 23.4261 27.7879C23.4615 28.95 23.5341 31.9574 23.5686 34.4677C25.5354 34.8891 27.5683 35.1196 29.5565 35.0592C34.2407 34.9174 44.9361 33.1847 44.6987 25.031C44.355 13.648 22.1568 3.18517 10.2713 3.54419C5.5871 3.68308 2.77658 4.19328 2.78869 4.65907C2.798 4.97085 5.07025 5.0899 5.08888 5.70497C5.10471 6.32098 3.79723 6.40601 2.99636 6.42963L2.98891 6.4353ZM60.4377 5.20705C60.2189 4.65529 59.4879 3.53853 56.8757 3.61789C51.1858 3.78795 46.8042 8.06793 46.902 11.4409C46.9337 12.534 47.4552 13.494 48.2207 14.281C48.0251 14.829 48.0065 15.1974 48.0065 15.4091C48.0251 15.9949 48.9005 17.5396 49.5617 17.5188C50.1297 17.5056 50.5115 16.9708 51.0517 16.1016C51.9829 16.4654 52.9142 16.6496 53.6405 16.6269C58.9952 16.4663 63.847 11.3785 63.7539 8.12367C63.7167 6.6271 62.7575 5.17587 60.4461 5.21367L60.4377 5.20705Z" fill="black"/>
</svg>
