<svg width="16" height="16" viewBox="0 0 16 16" fill="none" xmlns="http://www.w3.org/2000/svg">
<path d="M9.33337 12.6667C11.8474 12.6667 13.1047 12.6667 13.8854 11.8853C14.6667 11.1047 14.6667 9.84733 14.6667 7.33333C14.6667 4.81933 14.6667 3.562 13.8854 2.78133C13.1047 2 11.8474 2 9.33337 2H6.66671C4.15271 2 2.89537 2 2.11471 2.78133C1.33337 3.562 1.33337 4.81933 1.33337 7.33333C1.33337 9.84733 1.33337 11.1047 2.11471 11.8853C2.55004 12.3213 3.13337 12.514 4.00004 12.5987" stroke="#6C859F" stroke-width="2" stroke-linecap="round" stroke-linejoin="round"/>
<path d="M8 7.33331V7.33998" stroke="#6C859F" stroke-width="2" stroke-linecap="round"/>
<path d="M5.33337 7.33331V7.33998" stroke="#6C859F" stroke-width="2" stroke-linecap="round"/>
<path d="M10.6667 7.33331V7.33998" stroke="#6C859F" stroke-width="2" stroke-linecap="round"/>
<path d="M9.33337 12.6667C8.50937 12.6667 7.60137 13 6.77271 13.43C5.44071 14.1214 4.77471 14.4674 4.44671 14.2467C4.11871 14.0267 4.18071 13.3434 4.30537 11.9774L4.33337 11.6667" stroke="#6C859F" stroke-width="2" stroke-linecap="round"/>
</svg>
