<svg width="56" height="56" viewBox="0 0 56 56" fill="none" xmlns="http://www.w3.org/2000/svg">
<path d="M28 52.5C21.5022 52.5 15.2705 49.9188 10.6759 45.3241C6.08124 40.7295 3.5 34.4978 3.5 28C3.5 21.5022 6.08124 15.2705 10.6759 10.6759C15.2705 6.08124 21.5022 3.5 28 3.5C34.4978 3.5 40.7295 6.08124 45.3241 10.6759C49.9188 15.2705 52.5 21.5022 52.5 28C52.5 34.4978 49.9188 40.7295 45.3241 45.3241C40.7295 49.9188 34.4978 52.5 28 52.5ZM28 56C35.4261 56 42.548 53.05 47.799 47.799C53.05 42.548 56 35.4261 56 28C56 20.5739 53.05 13.452 47.799 8.20101C42.548 2.94999 35.4261 0 28 0C20.5739 0 13.452 2.94999 8.20101 8.20101C2.94999 13.452 0 20.5739 0 28C0 35.4261 2.94999 42.548 8.20101 47.799C13.452 53.05 20.5739 56 28 56Z" fill="white"/>
</svg>
