<svg width="18" height="22" viewBox="0 0 18 22" fill="none" xmlns="http://www.w3.org/2000/svg">
<path d="M1.08386 0.203376C1.41096 0.048982 1.77818 -0.0197037 2.14511 0.00487573C2.51204 0.0294551 2.86447 0.146347 3.1636 0.342689L17.1618 9.50801C17.4211 9.67758 17.6324 9.90144 17.7782 10.161C17.9239 10.4205 18 10.7082 18 11.0001C18 11.292 17.9239 11.5797 17.7782 11.8393C17.6324 12.0988 17.4211 12.3227 17.1618 12.4922L3.1636 21.6576C2.86457 21.8537 2.51232 21.9705 2.14558 21.9951C1.77883 22.0197 1.41179 21.9511 1.08481 21.7969C0.757832 21.6427 0.483574 21.4088 0.292189 21.121C0.100804 20.8331 -0.000297293 20.5025 1.09755e-06 20.1654V1.8348C-0.000383998 1.49782 0.100577 1.16726 0.291789 0.879452C0.483001 0.591641 0.757064 0.357713 1.08386 0.203376Z" fill="white"/>
</svg>
