<svg width="56" height="56" viewBox="0 0 56 56" fill="none" xmlns="http://www.w3.org/2000/svg">
<path fill-rule="evenodd" clip-rule="evenodd" d="M56 28C56 43.464 43.464 56 28 56C12.536 56 0 43.464 0 28C0 12.536 12.536 0 28 0C43.464 0 56 12.536 56 28ZM41.7224 18.0224C43.2138 17.8444 44.6324 17.4482 45.9531 16.8621C44.9627 18.3432 43.7166 19.636 42.273 20.6802C42.2884 20.9962 42.2954 21.3134 42.2954 21.633C42.2954 31.3665 34.8859 42.5905 21.3379 42.5905C17.178 42.5905 13.307 41.3701 10.0467 39.2795C10.6233 39.349 11.2106 39.3845 11.8048 39.3845C15.2548 39.3845 18.4313 38.2065 20.9523 36.2303C17.7299 36.1701 15.0096 34.0407 14.0723 31.1153C14.5226 31.2 14.9837 31.245 15.4589 31.245C16.131 31.245 16.7806 31.1564 17.3997 30.9868C14.0298 30.3099 11.4911 27.3338 11.4911 23.7647V23.6716C12.514 24.2405 13.6582 24.5562 14.828 24.5925C12.8519 23.2719 11.5513 21.0174 11.5513 18.4623C11.5513 17.1123 11.9144 15.847 12.5488 14.7588C16.1816 19.2146 21.6091 22.147 27.7309 22.4547C27.6061 21.9147 27.5412 21.3522 27.5412 20.7757C27.5412 16.7066 30.8393 13.4098 34.906 13.4098C37.0246 13.4098 38.9397 14.3035 40.2826 15.735C41.9329 15.4109 43.5153 14.8063 44.9612 13.9475C44.4107 15.6665 43.2445 17.1109 41.7224 18.0224Z" fill="#0073E6"/>
</svg>
