<svg width="56" height="56" viewBox="0 0 56 56" fill="none" xmlns="http://www.w3.org/2000/svg">
<path fill-rule="evenodd" clip-rule="evenodd" d="M56 28C56 43.464 43.464 56 28 56C12.536 56 0 43.464 0 28C0 12.536 12.536 0 28 0C43.464 0 56 12.536 56 28ZM29.1401 40.2805H26.9424C26.9424 40.2805 22.0934 40.5725 17.8234 36.1268C13.1665 31.2777 9.05373 21.6556 9.05373 21.6556C9.05373 21.6556 8.81664 21.0247 9.07419 20.7197C9.36369 20.3768 10.1523 20.3549 10.1523 20.3549L15.4056 20.3204C15.4056 20.3204 15.9007 20.4033 16.2551 20.6633C16.5471 20.8779 16.7108 21.2792 16.7108 21.2792C16.7108 21.2792 17.5598 23.4265 18.6844 25.3691C20.879 29.1614 21.9012 29.991 22.6464 29.5847C23.732 28.9922 23.4066 24.2236 23.4066 24.2236C23.4066 24.2236 23.4266 22.4926 22.8601 21.722C22.4213 21.1245 21.5938 20.9503 21.2284 20.9014C20.9329 20.862 21.4181 20.1757 22.047 19.8677C22.9923 19.4045 24.6619 19.3781 26.6345 19.3985C28.1713 19.414 28.6135 19.5098 29.2144 19.6551C30.6087 19.9917 30.5652 21.0704 30.4714 23.3979C30.4434 24.0934 30.4109 24.9003 30.4109 25.8323C30.4109 26.042 30.4047 26.2655 30.3985 26.4954C30.3659 27.6874 30.3286 29.0521 31.1131 29.5593C31.5154 29.8188 32.4997 29.5982 34.9614 25.418C36.1283 23.437 37.0033 21.1075 37.0033 21.1075C37.0033 21.1075 37.1945 20.6923 37.4915 20.5141C37.7954 20.3324 38.2052 20.3883 38.2052 20.3883L43.7335 20.3539C43.7335 20.3539 45.3946 20.1557 45.6637 20.9054C45.9457 21.6925 45.0428 23.5303 42.7842 26.5405C40.6393 29.3993 39.5971 30.4501 39.6951 31.3807C39.7665 32.0592 40.444 32.6739 41.742 33.8787C44.4632 36.4046 45.1885 37.7309 45.3609 38.0461C45.3748 38.0716 45.3852 38.0904 45.3926 38.1028C46.6105 40.1223 44.042 40.2805 44.042 40.2805L39.1321 40.3489C39.1321 40.3489 38.0769 40.558 36.6884 39.6042C35.9622 39.1058 35.2522 38.2919 34.5758 37.5164C33.5418 36.3309 32.5861 35.2353 31.7705 35.4939C30.4019 35.9281 30.4448 38.8769 30.4448 38.8769C30.4448 38.8769 30.4548 39.5068 30.1428 39.8423C29.8039 40.2076 29.1401 40.2805 29.1401 40.2805Z" fill="#0073E6"/>
</svg>
