<svg width="32" height="32" viewBox="0 0 32 32" fill="none" xmlns="http://www.w3.org/2000/svg">
<path fill-rule="evenodd" clip-rule="evenodd" d="M32 16C32 24.8366 24.8366 32 16 32C7.16344 32 0 24.8366 0 16C0 7.16344 7.16344 0 16 0C24.8366 0 32 7.16344 32 16ZM17.658 4.91106H21.2024H21.2042V8.73602C21.0012 8.73721 20.3976 8.73678 19.8449 8.73638C19.5868 8.7362 19.3397 8.73602 19.1498 8.73602C19.1472 8.73602 19.1432 8.73594 19.1378 8.73583C18.9891 8.73277 17.8207 8.70875 17.8207 9.87189C17.8283 10.364 17.8207 12.0586 17.8207 12.0586H21.218L20.9427 15.868H17.9001V27.0887H13.2905V15.9416H10.7818V12.0695H13.2152C13.2152 11.6797 13.2163 11.3046 13.2175 10.9376C13.2198 10.2265 13.2219 9.54533 13.2152 8.84463C13.2152 5.79571 15.5547 4.91106 17.658 4.91106Z" fill="#0073E6"/>
</svg>
