<svg width="12" height="14" viewBox="0 0 12 14" fill="none" xmlns="http://www.w3.org/2000/svg">
<path d="M11.0048 8.66001C11.4408 7.84125 11.6682 6.92762 11.6668 6.00001C11.6668 2.87034 9.12984 0.333344 6.00017 0.333344C2.8705 0.333344 0.333504 2.87034 0.333504 6.00001C0.331211 7.33677 0.803736 8.6309 1.66684 9.65168L1.6735 9.66001C1.67584 9.66201 1.67784 9.66468 1.6795 9.66668H1.66684L5.0295 13.2367C5.15416 13.369 5.30456 13.4744 5.47145 13.5465C5.63835 13.6186 5.81822 13.6557 6.00001 13.6557C6.18179 13.6557 6.36166 13.6186 6.52856 13.5465C6.69545 13.4744 6.84585 13.369 6.9705 13.2367L10.3335 9.66668H10.3208L10.3262 9.66034L10.3268 9.65968C10.3508 9.63101 10.3748 9.60234 10.3985 9.57301C10.6297 9.28885 10.8329 8.98298 11.0052 8.65968L11.0048 8.66001ZM6.0015 8.16668C5.47107 8.16668 4.96236 7.95596 4.58729 7.58089C4.21222 7.20582 4.0015 6.69711 4.0015 6.16668C4.0015 5.63624 4.21222 5.12754 4.58729 4.75246C4.96236 4.37739 5.47107 4.16668 6.0015 4.16668C6.53194 4.16668 7.04065 4.37739 7.41572 4.75246C7.79079 5.12754 8.00151 5.63624 8.00151 6.16668C8.00151 6.69711 7.79079 7.20582 7.41572 7.58089C7.04065 7.95596 6.53194 8.16668 6.0015 8.16668Z" fill="#6C859F"/>
</svg>
