<svg width="56" height="56" viewBox="0 0 56 56" fill="none" xmlns="http://www.w3.org/2000/svg">
<path d="M36.3452 14.8988H19.6547C16.9906 14.8988 14.8232 17.0662 14.8232 19.7303V36.4209C14.8232 39.0849 16.9906 41.253 19.6547 41.253H36.3452C39.0093 41.253 41.1773 39.0855 41.1773 36.4209V19.7303C41.1773 17.0662 39.0099 14.8988 36.3452 14.8988ZM27.9999 36.7515C23.2165 36.7515 19.3246 32.8596 19.3246 28.0756C19.3246 23.2921 23.2165 19.4002 27.9999 19.4002C32.784 19.4002 36.6759 23.2921 36.6759 28.0756C36.6759 32.859 32.7834 36.7515 27.9999 36.7515ZM36.9548 21.194C35.8224 21.194 34.9015 20.2731 34.9015 19.1413C34.9015 18.0096 35.8224 17.0887 36.9548 17.0887C38.0865 17.0887 39.0074 18.0096 39.0074 19.1413C39.0074 20.2731 38.0865 21.194 36.9548 21.194Z" fill="#0073E6"/>
<path d="M27.9999 23.0663C25.2385 23.0663 22.99 25.3136 22.99 28.075C22.99 30.8376 25.2385 33.0855 27.9999 33.0855C30.7625 33.0855 33.0092 30.8376 33.0092 28.075C33.0092 25.3142 30.7619 23.0663 27.9999 23.0663Z" fill="#0073E6"/>
<path d="M28 0C12.5366 0 0 12.5366 0 28C0 43.4634 12.5366 56 28 56C43.4634 56 56 43.4634 56 28C56 12.5366 43.4634 0 28 0ZM44.8428 36.4208C44.8428 41.1069 41.0314 44.9183 36.3453 44.9183H19.6547C14.9692 44.9183 11.1572 41.1069 11.1572 36.4208V19.7302C11.1572 15.0447 14.9692 11.2327 19.6547 11.2327H36.3453C41.0314 11.2327 44.8428 15.0447 44.8428 19.7302V36.4208Z" fill="#0073E6"/>
</svg>
