<svg width="56" height="56" viewBox="0 0 56 56" fill="none" xmlns="http://www.w3.org/2000/svg">
<path fill-rule="evenodd" clip-rule="evenodd" d="M0 28C0 12.536 12.536 0 28 0C43.464 0 56 12.536 56 28C56 43.464 43.464 56 28 56C12.536 56 0 43.464 0 28ZM40.6074 28.3996C41.9506 29.7381 41.9652 36.3456 41.9652 36.3838C41.9652 36.3838 41.9543 43.0257 40.6074 44.3688C39.2698 45.7044 27.9947 45.7332 27.9947 45.7332C27.9947 45.7332 16.7213 45.7044 15.3802 44.3689C14.0389 43.0304 14.0352 36.4339 14.0352 36.3838C14.0352 36.3457 14.0388 29.7381 15.3802 28.3996C16.7214 27.0632 27.9947 27.0454 27.9947 27.0464C27.9947 27.0454 39.2698 27.0632 40.6074 28.3996ZM20.4547 41.8915H18.6181V32.2923H16.7194V30.6613H22.3533L22.3534 32.2923H20.4547V41.8915ZM26.0941 40.9804C25.7908 41.3185 25.4801 41.5739 25.153 41.7486C24.8277 41.927 24.5133 42.0123 24.2063 42.0123C23.828 42.0123 23.5484 41.8916 23.3548 41.6427C23.1665 41.3946 23.0697 41.0279 23.0697 40.5328V33.6056H24.698V39.9606C24.698 40.1575 24.7327 40.2987 24.7986 40.3859C24.8698 40.4751 24.9813 40.5179 25.133 40.5179C25.2518 40.5179 25.4053 40.4593 25.588 40.3432C25.7726 40.2261 25.9389 40.0794 26.0941 39.9002V33.6057H27.7224L27.7223 41.8916H26.0941V40.9804ZM32.1411 41.9964C31.8213 41.9964 31.538 41.938 31.2895 41.8172C31.041 41.6966 30.8052 41.5108 30.5933 41.2563V41.8916H28.9469V30.6613H30.5933V34.2771C30.8144 34.0263 31.0465 33.8321 31.2914 33.7022C31.5398 33.5704 31.7903 33.5053 32.0423 33.5053C32.5595 33.5053 32.9525 33.6818 33.2229 34.0329C33.497 34.3868 33.6323 34.9041 33.6323 35.5821V40.1797C33.6322 40.7657 33.5041 41.2153 33.2485 41.5284C32.9945 41.8423 32.6236 41.9964 32.1411 41.9964ZM36.1649 39.5082C36.1649 39.9448 36.2181 40.2466 36.3239 40.4166C36.4335 40.5847 36.6162 40.6675 36.8758 40.6675C37.1461 40.6675 37.3344 40.5959 37.4422 40.4529C37.5483 40.3098 37.6049 39.9959 37.6049 39.5082V39.1302H39.2806V39.5557C39.2806 40.4056 39.0776 41.0455 38.6666 41.4774C38.261 41.9047 37.6505 42.1172 36.8392 42.1172C36.11 42.1172 35.5344 41.8915 35.1159 41.4345C34.6973 40.9805 34.4853 40.3543 34.4853 39.5556V35.8348C34.4853 35.1187 34.7174 34.5298 35.1779 34.0784C35.6384 33.6261 36.2305 33.4004 36.9615 33.4004C37.707 33.4004 38.2809 33.6102 38.6811 34.0292C39.0812 34.4471 39.2805 35.049 39.2805 35.8348V37.9469L36.1649 37.9469V39.5082ZM31.7829 35.036C31.8979 35.1808 31.9546 35.3934 31.9546 35.6731V39.9512C31.9546 40.2177 31.9053 40.4054 31.8122 40.5215C31.7191 40.6404 31.5728 40.699 31.3736 40.699C31.2348 40.699 31.1051 40.6673 30.9807 40.6088C30.8547 40.5512 30.7248 40.4499 30.5933 40.3163V35.154C30.7047 35.0397 30.8162 34.9552 30.9294 34.9013C31.0428 34.8456 31.1579 34.8205 31.2748 34.8205C31.494 34.8205 31.6641 34.8929 31.7829 35.036ZM36.3331 35.0787C36.2198 35.2235 36.165 35.4743 36.165 35.8209V36.6577H37.6051V35.8209C37.6051 35.4744 37.5466 35.2237 37.4332 35.0787C37.3236 34.9235 37.1391 34.8502 36.8923 34.8502C36.6329 34.8502 36.4465 34.9235 36.3331 35.0787ZM20.2234 18.6695L17.7656 11.2H19.8452L21.1865 16.145H21.3163L22.5917 11.2H24.6914L22.2885 18.4383V23.5709H20.2234V18.6695ZM29.4391 14.8773C28.953 14.4351 28.3298 14.2141 27.5715 14.2141C26.74 14.2141 26.0749 14.424 25.5814 14.8429C25.0862 15.2608 24.8395 15.8237 24.8395 16.5324L24.8396 21.2621C24.8396 22.0376 25.0826 22.6552 25.5614 23.1141C26.0439 23.571 26.6871 23.8014 27.4875 23.8014C28.3226 23.8014 28.9749 23.5784 29.4538 23.1344C29.927 22.6895 30.1646 22.0783 30.1646 21.2981V16.5835C30.1646 15.8878 29.9215 15.3184 29.4391 14.8773ZM28.0758 22.0114C27.9278 22.1498 27.7323 22.2203 27.4837 22.2203C27.2407 22.2203 27.0543 22.1525 26.9245 22.0151C26.7948 21.8767 26.7271 21.6845 26.7272 21.4346V16.4626C26.7272 16.2629 26.7985 16.1023 26.9373 15.9788C27.0781 15.8562 27.259 15.7958 27.4837 15.7958C27.725 15.7958 27.9205 15.8562 28.0704 15.9788C28.2202 16.1023 28.2952 16.2631 28.2952 16.4626V21.4346C28.2952 21.678 28.2221 21.8701 28.0758 22.0114ZM35.051 22.5632V23.571H36.8858V14.4444H35.0509V21.3714C34.881 21.572 34.6909 21.7356 34.4863 21.8637C34.2799 21.991 34.108 22.056 33.9746 22.056C33.8028 22.056 33.6767 22.0069 33.6018 21.9101C33.5251 21.8135 33.483 21.6575 33.483 21.4411V14.4444H31.652V22.0719C31.652 22.6162 31.7598 23.023 31.9736 23.2952C32.1891 23.5664 32.5054 23.703 32.9329 23.703C33.2765 23.703 33.6311 23.6062 33.9965 23.4121C34.364 23.219 34.7166 22.9338 35.051 22.5632Z" fill="#0073E6"/>
</svg>
