<svg width="122" height="30" viewBox="0 0 122 30" fill="none" xmlns="http://www.w3.org/2000/svg">
<g clip-path="url(#clip0_417_3197)">
<path d="M0.361206 -0.47998V30.353L15.6117 14.937L0.361206 -0.47998Z" fill="url(#paint0_linear_417_3197)"/>
<path d="M19.7079 10.7962L13.5515 7.17259L0.361206 -0.591858V-0.479972L15.6117 14.937L19.7079 10.7962Z" fill="url(#paint1_linear_417_3197)"/>
<path d="M0.361206 30.3529V30.4647L13.5515 22.7003L19.7074 19.0773L15.6117 14.937L0.361206 30.3529Z" fill="url(#paint2_linear_417_3197)"/>
<path d="M19.7077 10.7963L15.6115 14.9371L19.7071 19.0774L26.7426 14.9366L19.7077 10.7963Z" fill="url(#paint3_linear_417_3197)"/>
<path d="M94.9529 20.9638C94.3803 20.9638 93.8576 20.8562 93.3841 20.6406C92.9076 20.4223 92.4963 20.0791 92.1923 19.646H92.0958C92.1599 20.1698 92.1923 20.667 92.1923 21.1357V24.8246H90.8605V11.8335H91.9436L92.1281 13.061H92.1923C92.5348 12.5702 92.9335 12.2156 93.3884 11.9972C93.8427 11.7794 94.3649 11.6702 94.9529 11.6702C96.1193 11.6702 97.0196 12.0767 97.6536 12.8891C98.2872 13.702 98.6053 14.8419 98.6053 16.3089C98.6053 17.7823 98.283 18.9255 97.6383 19.7417C96.9925 20.5562 96.0981 20.9638 94.9529 20.9638V20.9638ZM94.7605 12.8237C93.8618 12.8237 93.2123 13.0772 92.8105 13.5847C92.4091 14.0923 92.2029 14.8992 92.1923 16.0068V16.3094C92.1923 17.5694 92.3985 18.4709 92.8105 19.0136C93.2224 19.5568 93.883 19.8282 94.7923 19.8282C95.5525 19.8282 96.1479 19.5147 96.5784 18.8877C97.0089 18.2607 97.2242 17.3959 97.2242 16.2938C97.2242 15.176 97.0095 14.3177 96.5784 13.7204C96.1479 13.122 95.5414 12.8237 94.7605 12.8237V12.8237ZM101.689 20.8H100.356V8.06989H101.689V20.8ZM109.347 20.8L109.082 19.5239H109.018C108.58 20.086 108.142 20.4665 107.706 20.6649C107.27 20.8643 106.724 20.9638 106.073 20.9638C105.2 20.9638 104.517 20.7346 104.023 20.2768C103.527 19.819 103.28 19.1671 103.28 18.3218C103.28 16.511 104.701 15.563 107.541 15.4743L109.034 15.4252V14.869C109.034 14.1652 108.886 13.6458 108.588 13.3107C108.291 12.975 107.817 12.8075 107.163 12.8075C106.43 12.8075 105.602 13.0366 104.676 13.4945L104.267 12.4556C104.701 12.2156 105.175 12.0275 105.692 11.8913C106.209 11.7551 106.726 11.687 107.246 11.687C108.294 11.687 109.071 11.9243 109.576 12.3988C110.082 12.8734 110.334 13.6344 110.334 14.6814V20.8011H109.348V20.8H109.347ZM106.338 19.8433C107.166 19.8433 107.818 19.6114 108.292 19.1482C108.766 18.685 109.003 18.0353 109.003 17.2002V16.3905L107.67 16.4467C106.61 16.4851 105.847 16.6532 105.379 16.951C104.911 17.2483 104.677 17.7099 104.677 18.3369C104.677 18.8277 104.822 19.2017 105.114 19.4574C105.406 19.7152 105.813 19.8433 106.338 19.8433ZM111.108 11.8335H112.536L114.462 16.9467C114.884 18.1137 115.147 18.9569 115.249 19.4752H115.313C115.382 19.1963 115.528 18.7207 115.75 18.0461C115.971 17.3732 116.698 15.3019 117.928 11.8324H119.356L115.576 22.0426C115.202 23.0512 114.765 23.7669 114.263 24.1912C113.763 24.6133 113.149 24.8246 112.422 24.8246C112.015 24.8246 111.614 24.7782 111.218 24.6857V23.5988C111.543 23.6674 111.874 23.7003 112.205 23.6971C113.12 23.6971 113.772 23.1734 114.163 22.1264L114.652 20.8508L111.108 11.8335V11.8335Z" fill="white"/>
<path d="M71.695 12.667C72.1186 13.0237 73.0008 13.7734 73.0008 15.1992C73.0008 16.5857 72.2283 17.2435 71.4559 17.8618C71.2168 18.105 70.94 18.3688 70.94 18.7818C70.94 19.1936 71.2162 19.419 71.4182 19.5877L72.0809 20.1119C72.8905 20.806 73.6259 21.4443 73.6259 22.7383C73.6259 24.5014 71.9516 26.283 68.788 26.283C66.1196 26.283 64.8324 24.989 64.8324 23.6004C64.8324 22.9253 65.1627 21.9686 66.249 21.3124C67.3889 20.6006 68.9349 20.5071 69.7625 20.4492C69.5048 20.1119 69.2106 19.7558 69.2106 19.1758C69.2106 18.8569 69.3034 18.6688 69.3951 18.4439C69.192 18.4629 68.99 18.4812 68.8061 18.4812C66.8566 18.4812 65.7528 16.9997 65.7528 15.5376C65.7528 14.6744 66.1393 13.7177 66.9298 13.0242C67.979 12.1427 69.2297 11.9924 70.2237 11.9924H74.0124L72.8349 12.6675H71.695V12.667ZM70.3886 20.9946C70.2423 20.9757 70.149 20.9757 69.9661 20.9757C69.8007 20.9757 68.8061 21.013 68.0331 21.2773C67.6285 21.4254 66.451 21.8762 66.451 23.2085C66.451 24.5387 67.7213 25.4965 69.6899 25.4965C71.4543 25.4965 72.3938 24.6317 72.3938 23.4701C72.3938 22.5113 71.7872 22.0075 70.3886 20.9946ZM70.9225 17.4305C71.3451 16.9986 71.3811 16.3992 71.3811 16.0614C71.3811 14.7112 70.5906 12.6107 69.0642 12.6107C68.5855 12.6107 68.0707 12.8545 67.7754 13.2302C67.4636 13.6242 67.3703 14.1301 67.3703 14.6182C67.3703 15.8743 68.0882 17.9564 69.6713 17.9564C70.1315 17.9559 70.6261 17.731 70.9225 17.4305V17.4305ZM60.1138 20.6941C57.1941 20.6941 55.6328 18.372 55.6328 16.2743C55.6328 13.8204 57.5976 11.7248 60.3906 11.7248C63.0886 11.7248 64.7794 13.8777 64.7794 16.1441C64.7788 18.3526 63.1088 20.6941 60.1138 20.6941V20.6941ZM62.4084 19.1774C62.8506 18.578 62.9603 17.8294 62.9603 17.0975C62.9603 15.4495 62.1894 12.3043 59.9118 12.3043C59.3041 12.3099 58.7182 12.536 58.2593 12.9421C57.543 13.5966 57.4136 14.4209 57.4136 15.2268C57.4136 17.0797 58.3139 20.1309 60.5369 20.1309C61.2526 20.1314 61.9869 19.7763 62.4084 19.1774V19.1774ZM50.1587 20.6941C47.2385 20.6941 45.6771 18.372 45.6771 16.2743C45.6771 13.8204 47.643 11.7248 50.4349 11.7248C53.1346 11.7248 54.8242 13.8777 54.8242 16.1441C54.8237 18.3526 53.1526 20.6941 50.1587 20.6941ZM52.4543 19.1774C52.8955 18.578 53.0057 17.8294 53.0057 17.0975C53.0057 15.4495 52.2338 12.3043 49.9562 12.3043C49.3485 12.31 48.7626 12.5361 48.3036 12.9421C47.5873 13.5966 47.459 14.4209 47.459 15.2268C47.459 17.0797 48.3582 20.1309 50.5818 20.1309C51.298 20.1314 52.0323 19.7763 52.4543 19.1774V19.1774ZM44.2737 20.4006L41.6329 21.0216C40.5614 21.1908 39.6013 21.3405 38.5865 21.3405C33.4894 21.3405 31.5511 17.5197 31.5511 14.5263C31.5511 10.8746 34.3016 7.48669 39.0112 7.48669C40.0085 7.48669 40.9681 7.63696 41.836 7.88181C43.2208 8.27692 43.8671 8.76608 44.2737 9.04877L42.7405 10.5363L42.0947 10.686L42.5565 9.93251C41.9288 9.312 40.783 8.16395 38.6051 8.16395C35.6875 8.16395 33.4899 10.4238 33.4899 13.7177C33.4899 17.2559 36.0014 20.5881 40.0265 20.5881C41.2093 20.5881 41.8174 20.3438 42.372 20.1174V17.0878L39.5843 17.2375L41.0609 16.4278H44.9757L44.4959 16.8975C44.3655 17.0116 44.348 17.0489 44.3108 17.1986C44.2918 17.3683 44.2743 17.9153 44.2743 18.1034L44.2737 20.4006V20.4006Z" fill="white"/>
<path d="M77.5317 19.8584C76.922 19.8022 76.7937 19.6898 76.7937 18.9536V8.29853L76.8038 8.17691C76.8786 7.51857 77.0625 7.4056 77.6357 7.06616H74.9949L73.6095 7.74396H75.0208V7.75261L75.0198 7.74558V19.3677C75.0198 19.7428 74.9471 19.8006 74.5225 20.3649H77.791L78.4744 19.9514C78.1589 19.9147 77.8451 19.8968 77.5317 19.8584ZM85.0454 20.0319C84.8445 20.1449 84.6425 20.2757 84.441 20.3687C83.8345 20.6497 83.2115 20.7238 82.6607 20.7238C82.0754 20.7238 81.1582 20.6854 80.2213 19.9941C78.9203 19.059 78.3519 17.451 78.3519 16.0484C78.3519 13.1518 80.6624 11.7308 82.552 11.7308C83.2115 11.7308 83.8907 11.8989 84.441 12.2545C85.3572 12.8702 85.5963 13.6739 85.723 14.1042L81.4148 15.8808L80.0024 15.9932C80.4599 18.3683 82.0372 19.7498 83.7799 19.7498C84.7151 19.7498 85.3943 19.4136 86.0178 19.0963L85.0454 20.0319V20.0319ZM83.3223 14.4598C83.6701 14.329 83.8536 14.2171 83.8536 13.9555C83.8536 13.208 83.0281 12.3475 82.0372 12.3475C81.3029 12.3475 79.9281 12.9275 79.9281 14.9463C79.9281 15.2641 79.9647 15.6003 79.9833 15.9376L83.3223 14.4598V14.4598ZM86.8146 11.8589V13.0923H86.6678V11.8589H86.2669V11.7313H87.2144V11.8589H86.8146V11.8589ZM88.4645 13.0923V11.847H88.4576L88.0849 13.0923H87.9699L87.594 11.847H87.5892V13.0923H87.4556V11.7308H87.6846L88.0255 12.8313H88.0298L88.3654 11.7308H88.5976V13.0923H88.4645V13.0923Z" fill="white"/>
</g>
<defs>
<linearGradient id="paint0_linear_417_3197" x1="7.98674" y1="-0.47998" x2="7.98674" y2="30.3535" gradientUnits="userSpaceOnUse">
<stop stop-color="#207CB0"/>
<stop offset="0.376" stop-color="#3CB2BF"/>
<stop offset="0.796" stop-color="#58E9CE"/>
<stop offset="1" stop-color="#63FFD4"/>
</linearGradient>
<linearGradient id="paint1_linear_417_3197" x1="0.361206" y1="7.17259" x2="19.7079" y2="7.17259" gradientUnits="userSpaceOnUse">
<stop stop-color="#4BC3AE"/>
<stop offset="1" stop-color="#DEE999"/>
</linearGradient>
<linearGradient id="paint2_linear_417_3197" x1="10.0343" y1="14.937" x2="10.0343" y2="30.4653" gradientUnits="userSpaceOnUse">
<stop stop-color="#EC403D"/>
<stop offset="0.384" stop-color="#C93B75"/>
<stop offset="0.799" stop-color="#A636AC"/>
<stop offset="1" stop-color="#9934C2"/>
</linearGradient>
<linearGradient id="paint3_linear_417_3197" x1="21.1773" y1="10.7963" x2="21.1773" y2="19.0774" gradientUnits="userSpaceOnUse">
<stop stop-color="#FF8877"/>
<stop offset="0.612" stop-color="#FFB175"/>
<stop offset="1" stop-color="#FFC774"/>
</linearGradient>
<clipPath id="clip0_417_3197">
<rect width="122" height="30" fill="white"/>
</clipPath>
</defs>
</svg>
