<svg width="16" height="15" viewBox="0 0 16 15" fill="none" xmlns="http://www.w3.org/2000/svg">
<path d="M14.6804 6.45779C14.8396 6.33473 14.9576 6.16307 15.018 5.96686C15.0784 5.77065 15.0781 5.55974 15.0172 5.36371C14.9563 5.16767 14.8378 4.99633 14.6784 4.87372C14.5189 4.75111 14.3265 4.68337 14.1281 4.68001L10.2744 4.5289C10.2555 4.52754 10.2373 4.52053 10.2221 4.5087C10.2069 4.49687 10.1953 4.48073 10.1888 4.46223L8.85711 0.7289C8.79021 0.538962 8.66869 0.374952 8.509 0.259076C8.34932 0.1432 8.15919 0.0810547 7.96435 0.0810547C7.76951 0.0810547 7.57938 0.1432 7.4197 0.259076C7.26001 0.374952 7.13849 0.538962 7.07159 0.7289L5.74422 4.47557C5.73765 4.49407 5.72608 4.5102 5.71088 4.52203C5.69569 4.53386 5.67753 4.54088 5.65858 4.54223L1.80492 4.69334C1.6065 4.69671 1.41407 4.76444 1.25461 4.88705C1.09516 5.00966 0.976665 5.181 0.915756 5.37704C0.854847 5.57308 0.854573 5.78399 0.914974 5.98019C0.975376 6.1764 1.09342 6.34807 1.25256 6.47112L4.27554 8.93779C4.29067 8.95015 4.30198 8.96684 4.30807 8.9858C4.31416 9.00475 4.31476 9.02515 4.3098 9.04446L3.26931 12.8711C3.21539 13.066 3.22062 13.2734 3.28427 13.465C3.34792 13.6567 3.46692 13.8234 3.62507 13.9424C3.78321 14.0613 3.97283 14.1269 4.16813 14.13C4.36343 14.1332 4.55493 14.0738 4.71657 13.96L7.91083 11.7378C7.92656 11.7265 7.94523 11.7205 7.96435 11.7205C7.98347 11.7205 8.00214 11.7265 8.01787 11.7378L11.2121 13.96C11.3716 14.0777 11.5624 14.141 11.7581 14.141C11.9537 14.141 12.1445 14.0777 12.304 13.96C12.4622 13.8421 12.5813 13.6763 12.6449 13.4853C12.7086 13.2943 12.7136 13.0875 12.6594 12.8933L11.6103 9.05334C11.6048 9.03407 11.6051 9.01348 11.6112 8.99439C11.6173 8.9753 11.629 8.95864 11.6446 8.94668L14.6804 6.45779Z" fill="#DFECF8"/>
</svg>
