<svg width="19" height="20" viewBox="0 0 19 20" fill="none" xmlns="http://www.w3.org/2000/svg">
<path d="M17.25 0.25H1.25C0.984784 0.25 0.73043 0.355357 0.542893 0.542893C0.355357 0.73043 0.25 0.984784 0.25 1.25V3.84C0.25 4.363 0.463 4.877 0.833 5.247L6.25 10.664V18.25C6.2502 18.4204 6.29387 18.5879 6.3769 18.7367C6.45992 18.8854 6.57955 19.0105 6.72444 19.1002C6.86934 19.1898 7.03471 19.2409 7.2049 19.2488C7.3751 19.2566 7.54447 19.2209 7.697 19.145L11.697 17.145C12.036 16.975 12.25 16.629 12.25 16.25V10.664L17.667 5.247C18.037 4.877 18.25 4.363 18.25 3.84V1.25C18.25 0.984784 18.1446 0.73043 17.9571 0.542893C17.7696 0.355357 17.5152 0.25 17.25 0.25ZM10.543 9.543C10.45 9.63571 10.3762 9.7459 10.3259 9.86724C10.2756 9.98857 10.2498 10.1187 10.25 10.25V15.632L8.25 16.632V10.25C8.25019 10.1187 8.2244 9.98857 8.17412 9.86724C8.12383 9.7459 8.05004 9.63571 7.957 9.543L2.25 3.84V2.25H16.251L16.253 3.833L10.543 9.543Z" fill="#0073E6"/>
</svg>
