<svg width="15" height="15" viewBox="0 0 15 15" fill="none" xmlns="http://www.w3.org/2000/svg">
<path d="M14.4169 6.45779C14.5775 6.33473 14.6966 6.16307 14.7576 5.96686C14.8186 5.77065 14.8183 5.55974 14.7568 5.36371C14.6953 5.16767 14.5758 4.99633 14.4148 4.87372C14.2539 4.75111 14.0597 4.68337 13.8594 4.68001L9.9701 4.5289C9.95097 4.52754 9.93264 4.52053 9.9173 4.5087C9.90197 4.49687 9.89029 4.48073 9.88367 4.46223L8.53969 0.7289C8.47216 0.538962 8.34951 0.374952 8.18835 0.259076C8.02719 0.1432 7.8353 0.0810547 7.63866 0.0810547C7.44202 0.0810547 7.25013 0.1432 7.08897 0.259076C6.9278 0.374952 6.80516 0.538962 6.73763 0.7289L5.39797 4.47557C5.39135 4.49407 5.37967 4.5102 5.36434 4.52203C5.349 4.53386 5.33067 4.54088 5.31154 4.54223L1.42222 4.69334C1.22196 4.69671 1.02775 4.76444 0.866818 4.88705C0.705884 5.00966 0.586296 5.181 0.524823 5.37704C0.46335 5.57308 0.463074 5.78399 0.524035 5.98019C0.584995 6.1764 0.704134 6.34807 0.864746 6.47112L3.91571 8.93779C3.93098 8.95015 3.94239 8.96684 3.94853 8.9858C3.95468 9.00475 3.95529 9.02515 3.95028 9.04446L2.90016 12.8711C2.84574 13.066 2.85102 13.2734 2.91526 13.465C2.9795 13.6567 3.0996 13.8234 3.25921 13.9424C3.41882 14.0613 3.6102 14.1269 3.80731 14.13C4.00441 14.1332 4.19768 14.0738 4.36082 13.96L7.58464 11.7378C7.60052 11.7265 7.61936 11.7205 7.63866 11.7205C7.65796 11.7205 7.6768 11.7265 7.69268 11.7378L10.9165 13.96C11.0774 14.0777 11.27 14.141 11.4675 14.141C11.665 14.141 11.8575 14.0777 12.0185 13.96C12.1781 13.8421 12.2983 13.6763 12.3626 13.4853C12.4268 13.2943 12.4319 13.0875 12.3772 12.8933L11.3184 9.05334C11.3128 9.03407 11.3131 9.01348 11.3193 8.99439C11.3255 8.9753 11.3372 8.95864 11.353 8.94668L14.4169 6.45779Z" fill="#F9E254"/>
</svg>
