<svg width="135" height="46" viewBox="0 0 135 46" fill="none" xmlns="http://www.w3.org/2000/svg">
<g clip-path="url(#clip0_417_3102)">
<path d="M29.5639 21.951C29.5365 18.6574 32.241 17.0566 32.3598 16.983C30.8248 14.7382 28.4492 14.4254 27.6178 14.3978C25.626 14.1862 23.689 15.603 22.6748 15.603C21.6423 15.603 20.0708 14.4254 18.3896 14.453C16.2242 14.4898 14.1867 15.7502 13.0811 17.719C10.7878 21.721 12.4964 27.609 14.6983 30.8474C15.8039 32.4298 17.083 34.2054 18.7734 34.141C20.418 34.0766 21.0393 33.083 23.022 33.083C24.9955 33.083 25.5711 34.141 27.2889 34.1042C29.0614 34.0766 30.1669 32.5126 31.236 30.9118C32.506 29.0994 33.0176 27.3054 33.0359 27.2134C32.9902 27.195 29.6005 25.8886 29.5639 21.951V21.951ZM26.3204 12.2726C27.2066 11.1594 27.8097 9.64142 27.6452 8.09583C26.366 8.15103 24.758 8.98822 23.8351 10.083C23.022 11.049 22.291 12.6222 22.4738 14.1034C23.9174 14.2138 25.3975 13.3674 26.3204 12.2726V12.2726ZM53.4292 33.911H51.1268L49.8659 29.9182H45.4802L44.2833 33.911H42.0448L46.3848 20.3226H49.071L53.4292 33.911ZM49.4913 28.2438L48.3492 24.7018C48.2304 24.3338 48.002 23.4874 47.6731 22.1442H47.6274C47.4903 22.7238 47.2802 23.5794 46.9878 24.7018L45.864 28.2438H49.4913ZM64.5853 28.897C64.5853 30.5622 64.1376 31.8778 63.233 32.8438C62.429 33.7086 61.4239 34.1318 60.2362 34.1318C58.9479 34.1318 58.025 33.6718 57.4586 32.7426V37.8854H55.2931V27.333C55.2931 26.2842 55.2657 25.217 55.2109 24.113H57.1114L57.2301 25.6678H57.2667C57.9885 24.4994 59.0849 23.9106 60.5468 23.9106C61.698 23.9106 62.6483 24.3706 63.4158 25.2814C64.2015 26.2014 64.5853 27.3974 64.5853 28.897V28.897ZM62.3833 28.9706C62.3833 28.0138 62.1732 27.2318 61.7437 26.6154C61.2777 25.9714 60.6473 25.6494 59.8615 25.6494C59.3316 25.6494 58.8474 25.8334 58.4088 26.183C57.9794 26.5418 57.687 27.0018 57.5591 27.5814C57.4951 27.8482 57.4586 28.069 57.4586 28.2438V29.8814C57.4586 30.5898 57.6778 31.197 58.1073 31.6846C58.5367 32.1722 59.1032 32.4206 59.7976 32.4206C60.6108 32.4206 61.2412 32.0986 61.698 31.473C62.1549 30.8382 62.3833 30.0102 62.3833 28.9706ZM75.7687 28.897C75.7687 30.5622 75.321 31.8778 74.4165 32.8438C73.6124 33.7086 72.6074 34.1318 71.4196 34.1318C70.1313 34.1318 69.2085 33.6718 68.642 32.7426V37.8854H66.4766V27.333C66.4766 26.2842 66.4492 25.217 66.3944 24.113H68.2948L68.4136 25.6678H68.4501C69.1719 24.4994 70.2684 23.9106 71.7302 23.9106C72.8815 23.9106 73.8317 24.3706 74.5992 25.2814C75.385 26.2014 75.7687 27.3974 75.7687 28.897V28.897ZM73.5667 28.9706C73.5667 28.0138 73.3566 27.2318 72.9272 26.6154C72.4612 25.9714 71.8307 25.6494 71.045 25.6494C70.515 25.6494 70.0308 25.8334 69.5922 26.183C69.1628 26.5418 68.8796 27.0018 68.7425 27.5814C68.6786 27.8482 68.642 28.069 68.642 28.2438V29.8814C68.642 30.5898 68.8613 31.197 69.2907 31.6846C69.7201 32.1722 70.2866 32.4206 70.981 32.4206C71.7942 32.4206 72.4338 32.0986 72.8815 31.473C73.3475 30.8382 73.5667 30.0102 73.5667 28.9706ZM88.2861 30.1022C88.2861 31.2614 87.8841 32.1998 87.0892 32.9266C86.2121 33.7178 84.9877 34.1134 83.4162 34.1134C81.9635 34.1134 80.8031 33.8282 79.926 33.267L80.4285 31.4546C81.3787 32.0158 82.4203 32.301 83.5533 32.301C84.3664 32.301 85.006 32.117 85.4537 31.749C85.9106 31.381 86.139 30.8842 86.139 30.2678C86.139 29.7158 85.9471 29.2558 85.5816 28.8786C85.207 28.5014 84.5857 28.1518 83.7177 27.8298C81.333 26.9374 80.1544 25.6402 80.1544 23.9382C80.1544 22.825 80.5747 21.9142 81.4061 21.1966C82.2376 20.4882 83.3431 20.1294 84.7228 20.1294C85.9471 20.1294 86.9704 20.341 87.7836 20.7734L87.2354 22.5398C86.4679 22.1258 85.609 21.9142 84.6405 21.9142C83.8822 21.9142 83.2792 22.1074 82.8497 22.4754C82.4934 22.8158 82.3107 23.2206 82.3107 23.7082C82.3107 24.2418 82.5208 24.6926 82.932 25.033C83.2883 25.355 83.9461 25.7046 84.8964 26.0818C86.0567 26.551 86.9065 27.103 87.4547 27.7378C88.012 28.3726 88.2861 29.1638 88.2861 30.1022V30.1022ZM95.4494 25.7506H93.0647V30.507C93.0647 31.7122 93.485 32.3194 94.3255 32.3194C94.7093 32.3194 95.0291 32.2826 95.2849 32.2182L95.3489 33.8742C94.9194 34.0306 94.3621 34.1134 93.6677 34.1134C92.8088 34.1134 92.151 33.8466 91.6667 33.3222C91.1825 32.7978 90.9449 31.9146 90.9449 30.6818V25.7414H89.5287V24.113H90.9449V22.319L93.0647 21.675V24.113H95.4494V25.7506ZM106.176 28.9338C106.176 30.4426 105.747 31.6754 104.897 32.6414C104.001 33.635 102.814 34.1318 101.333 34.1318C99.9081 34.1318 98.766 33.6534 97.9163 32.7058C97.0666 31.7582 96.6463 30.553 96.6463 29.0994C96.6463 27.5814 97.0849 26.3394 97.9529 25.3734C98.83 24.4074 100.009 23.9198 101.489 23.9198C102.914 23.9198 104.065 24.3982 104.933 25.355C105.765 26.275 106.176 27.471 106.176 28.9338V28.9338ZM103.937 28.9798C103.937 28.0782 103.746 27.3146 103.362 26.6706C102.905 25.8886 102.256 25.5022 101.416 25.5022C100.548 25.5022 99.8807 25.8886 99.433 26.6706C99.0401 27.3146 98.8574 28.0966 98.8574 29.0258C98.8574 29.9274 99.0493 30.7002 99.433 31.335C99.899 32.117 100.557 32.5034 101.397 32.5034C102.22 32.5034 102.868 32.1078 103.344 31.3166C103.736 30.6542 103.937 29.8814 103.937 28.9798V28.9798ZM113.211 26.0266C113.001 25.9898 112.773 25.9714 112.526 25.9714C111.768 25.9714 111.174 26.2566 110.763 26.8362C110.406 27.3422 110.224 27.9954 110.224 28.7682V33.911H108.058V27.195C108.058 26.0634 108.04 25.033 107.994 24.113H109.876L109.959 25.9898H110.023C110.251 25.3458 110.607 24.8214 111.101 24.435C111.585 24.0854 112.106 23.9106 112.663 23.9106C112.864 23.9106 113.047 23.929 113.202 23.9474L113.211 26.0266ZM122.878 28.5474C122.878 28.9338 122.851 29.265 122.796 29.5318H116.309C116.336 30.4978 116.647 31.243 117.25 31.749C117.798 32.1998 118.502 32.4298 119.37 32.4298C120.329 32.4298 121.206 32.2734 121.992 31.9698L122.33 33.4786C121.407 33.8834 120.32 34.0858 119.068 34.0858C117.56 34.0858 116.373 33.635 115.514 32.7426C114.655 31.8502 114.226 30.645 114.226 29.1454C114.226 27.6734 114.628 26.4406 115.432 25.4562C116.272 24.4074 117.405 23.883 118.83 23.883C120.228 23.883 121.297 24.4074 122.01 25.4562C122.586 26.3026 122.878 27.3238 122.878 28.5474V28.5474ZM120.813 27.9862C120.831 27.3422 120.685 26.781 120.393 26.3118C120.018 25.7046 119.443 25.401 118.675 25.401C117.972 25.401 117.396 25.6954 116.957 26.2842C116.601 26.7534 116.382 27.3238 116.318 27.977L120.813 27.9862Z" fill="white"/>
<path d="M48.4499 15.4651H47.317L46.6957 13.5055H44.5394L43.9455 15.4651H42.8491L44.9779 8.78588H46.2936L48.4499 15.4651ZM46.5038 12.6775L45.9464 10.9295C45.8916 10.7547 45.782 10.3315 45.6084 9.66908H45.5901C45.517 9.95428 45.4256 10.3683 45.2703 10.9295L44.7221 12.6775H46.5038ZM53.7858 10.6443L51.9767 15.4651H50.9443L49.19 10.6443H50.3321L51.1453 13.1927C51.2823 13.6159 51.4011 14.0207 51.4925 14.4071H51.5199C51.6021 14.0575 51.7209 13.6527 51.8671 13.1927L52.6711 10.6443H53.7858ZM57.6415 15.4651L57.5593 14.9131H57.5319C57.203 15.3547 56.737 15.5755 56.134 15.5755C55.2751 15.5755 54.6721 14.9683 54.6721 14.1587C54.6721 12.9719 55.6954 12.3555 57.4679 12.3555V12.2635C57.4679 11.6287 57.1299 11.3159 56.472 11.3159C55.9969 11.3159 55.5858 11.4355 55.2203 11.6747L55.001 10.9755C55.4396 10.6995 55.9969 10.5615 56.6456 10.5615C57.8974 10.5615 58.5278 11.2239 58.5278 12.5579V14.3335C58.5278 14.8211 58.5461 15.1983 58.6009 15.4835L57.6415 15.4651ZM57.4953 13.0639C56.3167 13.0639 55.7228 13.3491 55.7228 14.0391C55.7228 14.5451 56.0243 14.7935 56.4538 14.7935C56.9928 14.7935 57.4953 14.3795 57.4953 13.8091V13.0639ZM60.8942 9.85308C60.5379 9.85308 60.2638 9.57708 60.2638 9.20908C60.2638 8.84108 60.547 8.57428 60.9125 8.57428C61.278 8.57428 61.5704 8.84108 61.5612 9.20908C61.5612 9.59548 61.2871 9.85308 60.8942 9.85308V9.85308ZM60.3826 10.6443H61.4424V15.4559H60.3826V10.6443ZM63.3338 8.43628H64.3936V15.4559H63.3338V8.43628ZM68.9072 15.4651L68.825 14.9131H68.7976C68.4686 15.3547 68.0027 15.5755 67.3996 15.5755C66.5408 15.5755 65.9378 14.9683 65.9378 14.1587C65.9378 12.9719 66.9611 12.3555 68.7336 12.3555V12.2635C68.7336 11.6287 68.3955 11.3159 67.7377 11.3159C67.2626 11.3159 66.8514 11.4355 66.486 11.6747L66.2667 10.9663C66.7052 10.6903 67.2626 10.5523 67.9113 10.5523C69.163 10.5523 69.7935 11.2147 69.7935 12.5487V14.3243C69.7935 14.8119 69.8118 15.1891 69.8574 15.4743H68.9072V15.4651ZM68.761 13.0639C67.5824 13.0639 66.9885 13.3491 66.9885 14.0391C66.9885 14.5451 67.29 14.7935 67.7194 14.7935C68.2585 14.7935 68.761 14.3795 68.761 13.8091V13.0639ZM74.106 15.5755C73.4299 15.5755 72.9274 15.2903 72.5985 14.7199H72.5802L72.5162 15.4651H71.6117C71.6391 15.0787 71.6483 14.6463 71.6483 14.1679V8.43628H72.7173V11.3527H72.7355C73.0553 10.8191 73.5578 10.5523 74.2614 10.5523C75.4126 10.5523 76.2167 11.5459 76.2167 12.9903C76.2167 14.4807 75.3212 15.5755 74.106 15.5755V15.5755ZM73.8868 11.3895C73.2746 11.3895 72.7173 11.9231 72.7173 12.6683V13.5147C72.7173 14.1771 73.2198 14.7199 73.8685 14.7199C74.6634 14.7199 75.1385 14.0667 75.1385 13.0271C75.1385 12.0519 74.6451 11.3895 73.8868 11.3895V11.3895ZM77.7882 8.43628H78.848V15.4559H77.7882V8.43628ZM84.6316 13.3123H81.4429C81.4612 14.2231 82.0642 14.7383 82.9505 14.7383C83.4256 14.7383 83.855 14.6555 84.2388 14.5083L84.4032 15.2535C83.9555 15.4559 83.4256 15.5479 82.8043 15.5479C81.3058 15.5479 80.4196 14.6003 80.4196 13.1191C80.4196 11.6471 81.3241 10.5339 82.6855 10.5339C83.9007 10.5339 84.6773 11.4447 84.6773 12.8247C84.6773 13.0179 84.6682 13.1835 84.6316 13.3123V13.3123ZM83.6631 12.5487C83.6631 11.8035 83.2885 11.2791 82.6124 11.2791C82.0002 11.2791 81.5251 11.8127 81.452 12.5487H83.6631ZM91.0731 15.5755C89.6752 15.5755 88.7706 14.5267 88.7706 13.1007C88.7706 11.6103 89.6934 10.5523 91.1553 10.5523C92.535 10.5523 93.4578 11.5551 93.4578 13.0179C93.4578 14.5175 92.5076 15.5755 91.0731 15.5755ZM91.1188 11.3343C90.3513 11.3343 89.8579 12.0611 89.8579 13.0639C89.8579 14.0575 90.3604 14.7751 91.1096 14.7751C91.8589 14.7751 92.3614 14.0023 92.3614 13.0363C92.3522 12.0611 91.868 11.3343 91.1188 11.3343V11.3343ZM99.1683 15.4651H98.1084V12.6959C98.1084 11.8403 97.7795 11.4171 97.1399 11.4171C96.5095 11.4171 96.0801 11.9599 96.0801 12.5947V15.4559H95.0202V12.0243C95.0202 11.6011 95.011 11.1411 94.9836 10.6443H95.9156L95.9613 11.3895H95.9887C96.2719 10.8743 96.8567 10.5431 97.5054 10.5431C98.5104 10.5431 99.1683 11.3159 99.1683 12.5763V15.4651ZM106.121 11.4539H104.952V13.7907C104.952 14.3887 105.162 14.6831 105.573 14.6831C105.756 14.6831 105.92 14.6647 106.048 14.6371L106.076 15.4467C105.866 15.5295 105.591 15.5663 105.253 15.5663C104.413 15.5663 103.919 15.0971 103.919 13.8827V11.4539H103.225V10.6535H103.919V9.77028L104.961 9.44828V10.6443H106.131V11.4539H106.121ZM111.75 15.4651H110.69V12.7143C110.69 11.8495 110.361 11.4171 109.721 11.4171C109.173 11.4171 108.661 11.7943 108.661 12.5579V15.4559H107.602V8.43628H108.661V11.3251H108.68C109.018 10.8007 109.493 10.5431 110.114 10.5431C111.128 10.5431 111.75 11.3343 111.75 12.5947V15.4651ZM117.177 13.3123H113.988C114.006 14.2231 114.609 14.7383 115.496 14.7383C115.971 14.7383 116.4 14.6555 116.784 14.5083L116.948 15.2535C116.501 15.4559 115.971 15.5479 115.35 15.5479C113.851 15.5479 112.965 14.6003 112.965 13.1191C112.965 11.6471 113.869 10.5339 115.231 10.5339C116.446 10.5339 117.223 11.4447 117.223 12.8247C117.223 13.0179 117.213 13.1835 117.177 13.3123V13.3123ZM116.208 12.5487C116.208 11.8035 115.834 11.2791 115.158 11.2791C114.546 11.2791 114.061 11.8127 113.997 12.5487H116.208Z" fill="white"/>
</g>
<defs>
<clipPath id="clip0_417_3102">
<rect width="135" height="46" fill="white"/>
</clipPath>
</defs>
</svg>
